<svg id="visual" viewBox="0 0 900 600" width="900" height="600" xmlns="http://www.w3.org/2000/svg" xmlns:xlink="http://www.w3.org/1999/xlink" version="1.1"><path d="M0 300L75 307.7C150 315.3 300 330.7 450 322.8C600 315 750 284 825 268.5L900 253L900 601L825 601C750 601 600 601 450 601C300 601 150 601 75 601L0 601Z" fill="#3864f4"></path><path d="M0 393L75 391.8C150 390.7 300 388.3 450 399.7C600 411 750 436 825 448.5L900 461L900 601L825 601C750 601 600 601 450 601C300 601 150 601 75 601L0 601Z" fill="#4053be"></path><path d="M0 455L75 448.5C150 442 300 429 450 415.5C600 402 750 388 825 381L900 374L900 601L825 601C750 601 600 601 450 601C300 601 150 601 75 601L0 601Z" fill="#3e438a"></path><path d="M0 426L75 435.7C150 445.3 300 464.7 450 471.8C600 479 750 474 825 471.5L900 469L900 601L825 601C750 601 600 601 450 601C300 601 150 601 75 601L0 601Z" fill="#35345a"></path><path d="M0 476L75 482.3C150 488.7 300 501.3 450 505.2C600 509 750 504 825 501.5L900 499L900 601L825 601C750 601 600 601 450 601C300 601 150 601 75 601L0 601Z" fill="#27262e"></path></svg>